<?xml version="1.0" encoding="UTF-8" standalone="no"?>
<!-- Created with Inkscape (http://www.inkscape.org/) -->

<svg
   xmlns:dc="http://purl.org/dc/elements/1.1/"
   xmlns:cc="http://creativecommons.org/ns#"
   xmlns:rdf="http://www.w3.org/1999/02/22-rdf-syntax-ns#"
   xmlns:svg="http://www.w3.org/2000/svg"
   xmlns="http://www.w3.org/2000/svg"
   xmlns:sodipodi="http://sodipodi.sourceforge.net/DTD/sodipodi-0.dtd"
   xmlns:inkscape="http://www.inkscape.org/namespaces/inkscape"
   width="67.73333mm"
   height="67.73333mm"
   viewBox="0 0 67.73333 67.733329"
   version="1.1"
   id="svg8"
   inkscape:version="0.92.1 r15371"
   sodipodi:docname="Config.svg"
   inkscape:export-filename="C:\Users\Kelvy\Documents\GitHub\MagicCucaBakery\Graphics\Config.png"
   inkscape:export-xdpi="96"
   inkscape:export-ydpi="96">
  <defs
     id="defs2" />
  <sodipodi:namedview
     id="base"
     pagecolor="#ffffff"
     bordercolor="#666666"
     borderopacity="1.0"
     inkscape:pageopacity="0.0"
     inkscape:pageshadow="2"
     inkscape:zoom="1.4"
     inkscape:cx="-189.72121"
     inkscape:cy="119.61442"
     inkscape:document-units="mm"
     inkscape:current-layer="g4510"
     showgrid="false"
     inkscape:window-width="1920"
     inkscape:window-height="1001"
     inkscape:window-x="-9"
     inkscape:window-y="-9"
     inkscape:window-maximized="1" />
  <metadata
     id="metadata5">
    <rdf:RDF>
      <cc:Work
         rdf:about="">
        <dc:format>image/svg+xml</dc:format>
        <dc:type
           rdf:resource="http://purl.org/dc/dcmitype/StillImage" />
        <dc:title />
      </cc:Work>
    </rdf:RDF>
  </metadata>
  <g
     inkscape:label="Camada 1"
     inkscape:groupmode="layer"
     id="layer1"
     transform="translate(-72.619789,-115.25533)">
    <g
       id="g4510"
       transform="matrix(1.2364996,0,0,1.2364996,-23.965752,-34.081755)">
      <path
         id="path4485"
         d="m 104.00596,122.61278 a 25.602878,25.602878 0 0 0 -3.6742,0.50333 l -0.18242,4.77283 a 20.980657,20.980657 0 0 0 -2.739364,0.93793 l -3.060796,-3.68815 a 25.602878,25.602878 0 0 0 -3.210139,1.85829 l 1.66088,4.4881 a 20.980657,20.980657 0 0 0 -2.177646,1.90789 l -4.230232,-2.23139 a 25.602878,25.602878 0 0 0 -2.263426,2.93884 l 3.258714,3.51813 a 20.980657,20.980657 0 0 0 -1.290359,2.59209 l -4.752681,-0.44183 a 25.602878,25.602878 0 0 0 -0.976167,3.57859 l 4.365106,2.0066 a 20.980657,20.980657 0 0 0 -0.212908,2.80913 20.980657,20.980657 0 0 0 0.0031,0.0806 l -4.572331,1.41439 a 25.602878,25.602878 0 0 0 0.50333,3.67419 l 4.772319,0.18242 a 20.980657,20.980657 0 0 0 0.938443,2.73937 l -3.688146,3.06079 a 25.602878,25.602878 0 0 0 1.858285,3.21014 l 4.487579,-1.66088 a 20.980657,20.980657 0 0 0 1.908411,2.17765 l -2.231388,4.23075 a 25.602878,25.602878 0 0 0 2.938322,2.26342 l 3.517615,-3.25871 a 20.980657,20.980657 0 0 0 2.592607,1.28984 l -0.441833,4.7532 a 25.602878,25.602878 0 0 0 3.578065,0.97617 l 2.00712,-4.36563 a 20.980657,20.980657 0 0 0 2.80913,0.21291 20.980657,20.980657 0 0 0 0.0811,-0.003 l 1.41438,4.57285 a 25.602878,25.602878 0 0 0 3.67368,-0.50333 l 0.18242,-4.77232 a 20.980657,20.980657 0 0 0 2.73937,-0.93844 l 3.06079,3.68815 a 25.602878,25.602878 0 0 0 3.21066,-1.85829 l -1.66088,-4.48758 a 20.980657,20.980657 0 0 0 2.17765,-1.90841 l 4.23023,2.23139 a 25.602878,25.602878 0 0 0 2.26343,-2.93884 l -3.25872,-3.51762 a 20.980657,20.980657 0 0 0 1.29036,-2.59261 l 4.75269,0.44184 a 25.602878,25.602878 0 0 0 0.97616,-3.57859 l -4.3651,-2.0066 a 20.980657,20.980657 0 0 0 0.21238,-2.80913 20.980657,20.980657 0 0 0 -0.003,-0.0806 l 4.57285,-1.41438 a 25.602878,25.602878 0 0 0 -0.50333,-3.67419 l -4.77232,-0.18242 a 20.980657,20.980657 0 0 0 -0.93845,-2.73937 l 3.68815,-3.0608 a 25.602878,25.602878 0 0 0 -1.85777,-3.21065 l -4.48809,1.66139 a 20.980657,20.980657 0 0 0 -1.90841,-2.17764 l 2.23138,-4.23075 a 25.602878,25.602878 0 0 0 -2.93832,-2.26343 l -3.51761,3.25872 a 20.980657,20.980657 0 0 0 -2.59261,-1.28984 l 0.44183,-4.7532 a 25.602878,25.602878 0 0 0 -3.57807,-0.97617 l -2.00712,4.36562 a 20.980657,20.980657 0 0 0 -2.80964,-0.2129 20.980657,20.980657 0 0 0 -0.0806,0.003 z m 1.49499,13.47256 a 12.077744,12.077744 0 0 1 12.07782,12.07782 12.077744,12.077744 0 0 1 -12.07782,12.07781 12.077744,12.077744 0 0 1 -12.077295,-12.07781 12.077744,12.077744 0 0 1 12.077295,-12.07782 z"
         style="opacity:1;fill:#f9f9f9;fill-opacity:1;stroke:none;stroke-width:0.5;stroke-linecap:round;stroke-linejoin:round;stroke-miterlimit:4;stroke-dasharray:none;stroke-opacity:1"
         inkscape:connector-curvature="0" />
    </g>
  </g>
</svg>
