<?xml version="1.0" encoding="UTF-8" standalone="no"?>
<!-- Created with Inkscape (http://www.inkscape.org/) -->

<svg
   xmlns:dc="http://purl.org/dc/elements/1.1/"
   xmlns:cc="http://creativecommons.org/ns#"
   xmlns:rdf="http://www.w3.org/1999/02/22-rdf-syntax-ns#"
   xmlns:svg="http://www.w3.org/2000/svg"
   xmlns="http://www.w3.org/2000/svg"
   xmlns:xlink="http://www.w3.org/1999/xlink"
   xmlns:sodipodi="http://sodipodi.sourceforge.net/DTD/sodipodi-0.dtd"
   xmlns:inkscape="http://www.inkscape.org/namespaces/inkscape"
   width="25.252378mm"
   height="17.904005mm"
   viewBox="0 0 25.252378 17.904005"
   version="1.1"
   id="svg8"
   sodipodi:docname="MCB_Icon.svg"
   inkscape:version="0.92.4 (5da689c313, 2019-01-14)">
  <defs
     id="defs2">
    <linearGradient
       inkscape:collect="always"
       id="linearGradient4604">
      <stop
         style="stop-color:#753c2a;stop-opacity:1"
         offset="0"
         id="stop4600" />
      <stop
         style="stop-color:#b57562;stop-opacity:1"
         offset="1"
         id="stop4602" />
    </linearGradient>
    <inkscape:perspective
       sodipodi:type="inkscape:persp3d"
       inkscape:vp_x="0 : 148.49998 : 1"
       inkscape:vp_y="0 : 999.99989 : 0"
       inkscape:vp_z="210.00001 : 148.49998 : 1"
       inkscape:persp3d-origin="105.00001 : 98.999989 : 1"
       id="perspective4558" />
    <linearGradient
       inkscape:collect="always"
       xlink:href="#linearGradient4604"
       id="linearGradient4606"
       x1="107.07726"
       y1="43.690151"
       x2="107.49003"
       y2="220.76659"
       gradientUnits="userSpaceOnUse"
       gradientTransform="matrix(1.8897638,3.2731669,-3.2731669,1.8897638,682.39957,-99.490777)" />
    <linearGradient
       inkscape:collect="always"
       xlink:href="#linearGradient4604"
       id="linearGradient4608"
       x1="106.38639"
       y1="111.95482"
       x2="107.07726"
       y2="43.690151"
       gradientUnits="userSpaceOnUse"
       gradientTransform="matrix(1,0,0,0.87286822,0,5.8267211)" />
    <linearGradient
       inkscape:collect="always"
       xlink:href="#linearGradient4604"
       id="linearGradient4620"
       gradientUnits="userSpaceOnUse"
       x1="107.07726"
       y1="43.690151"
       x2="107.49003"
       y2="220.76659"
       gradientTransform="matrix(1.8897638,-3.2731669,3.2731669,1.8897638,-186.80862,601.32836)" />
    <linearGradient
       inkscape:collect="always"
       xlink:href="#linearGradient4604"
       id="linearGradient4622"
       gradientUnits="userSpaceOnUse"
       gradientTransform="matrix(1,0,0,0.87286822,0,5.8267211)"
       x1="106.38639"
       y1="111.95482"
       x2="107.07726"
       y2="43.690151" />
    <filter
       style="color-interpolation-filters:sRGB"
       inkscape:label="Drop Shadow"
       id="filter4634">
      <feFlood
         flood-opacity="0.498039"
         flood-color="rgb(0,0,0)"
         result="flood"
         id="feFlood4624" />
      <feComposite
         in="flood"
         in2="SourceGraphic"
         operator="in"
         result="composite1"
         id="feComposite4626" />
      <feGaussianBlur
         in="composite1"
         stdDeviation="3"
         result="blur"
         id="feGaussianBlur4628" />
      <feOffset
         dx="6"
         dy="6"
         result="offset"
         id="feOffset4630" />
      <feComposite
         in="SourceGraphic"
         in2="offset"
         operator="over"
         result="composite2"
         id="feComposite4632" />
    </filter>
    <filter
       style="color-interpolation-filters:sRGB"
       inkscape:label="Drop Shadow"
       id="filter4838">
      <feFlood
         flood-opacity="0.498039"
         flood-color="rgb(0,0,0)"
         result="flood"
         id="feFlood4828" />
      <feComposite
         in="flood"
         in2="SourceGraphic"
         operator="in"
         result="composite1"
         id="feComposite4830" />
      <feGaussianBlur
         in="composite1"
         stdDeviation="3"
         result="blur"
         id="feGaussianBlur4832" />
      <feOffset
         dx="3.1"
         dy="-4.16667"
         result="offset"
         id="feOffset4834" />
      <feComposite
         in="SourceGraphic"
         in2="offset"
         operator="over"
         result="composite2"
         id="feComposite4836" />
    </filter>
    <linearGradient
       inkscape:collect="always"
       xlink:href="#linearGradient4604"
       id="linearGradient4975"
       gradientUnits="userSpaceOnUse"
       gradientTransform="matrix(1.8897638,3.2731669,-3.2731669,1.8897638,682.39957,-99.490777)"
       x1="107.07726"
       y1="43.690151"
       x2="107.49003"
       y2="220.76659" />
    <linearGradient
       inkscape:collect="always"
       xlink:href="#linearGradient4604"
       id="linearGradient4977"
       gradientUnits="userSpaceOnUse"
       gradientTransform="matrix(1.8897638,-3.2731669,3.2731669,1.8897638,-186.80862,601.32836)"
       x1="107.07726"
       y1="43.690151"
       x2="107.49003"
       y2="220.76659" />
  </defs>
  <sodipodi:namedview
     id="base"
     pagecolor="#ffffff"
     bordercolor="#666666"
     borderopacity="1.0"
     inkscape:pageopacity="0.0"
     inkscape:pageshadow="2"
     inkscape:zoom="10.256023"
     inkscape:cx="36.017958"
     inkscape:cy="34.703404"
     inkscape:document-units="mm"
     inkscape:current-layer="g4969"
     showgrid="false"
     inkscape:window-width="1920"
     inkscape:window-height="1004"
     inkscape:window-x="-8"
     inkscape:window-y="-8"
     inkscape:window-maximized="1" />
  <metadata
     id="metadata5">
    <rdf:RDF>
      <cc:Work
         rdf:about="">
        <dc:format>image/svg+xml</dc:format>
        <dc:type
           rdf:resource="http://purl.org/dc/dcmitype/StillImage" />
        <dc:title></dc:title>
      </cc:Work>
    </rdf:RDF>
  </metadata>
  <g
     inkscape:label="Layer 1"
     inkscape:groupmode="layer"
     id="layer1"
     transform="translate(-92.432438,-109.50791)">
    <g
       id="g4969"
       transform="matrix(0.48668856,0,0,0.48668856,47.09878,53.838459)">
      <g
         id="g4988"
         transform="matrix(0.24824857,0,0,0.24824857,89.526242,99.815931)">
        <path
           style="fill:#995c4a;fill-opacity:1;stroke:none;stroke-width:0.1974591;stroke-miterlimit:4;stroke-dasharray:none"
           d="m 50.789209,168.01093 a 3.5074082,3.4091604 0 0 0 -3.507342,3.4091 3.5074082,3.4091604 0 0 0 1.028757,2.40915 3.5074082,3.4091604 0 0 1 -0.502949,-1.75234 3.5074082,3.4091604 0 0 1 3.507341,-3.4091 3.5074082,3.4091604 0 0 1 2.479116,1.00098 3.5074082,3.4091604 0 0 0 -3.004923,-1.65779 z"
           id="circle4937"
           inkscape:connector-curvature="0" />
        <path
           inkscape:connector-curvature="0"
           id="path4942"
           d="m 187.20888,169.662 a 3.2434157,3.2579998 0 0 0 -3.24335,3.25794 3.2434157,3.2579998 0 0 0 0.95132,2.30233 3.2434157,3.2579998 0 0 1 -0.4651,-1.67464 3.2434157,3.2579998 0 0 1 3.24335,-3.25794 3.2434157,3.2579998 0 0 1 2.29253,0.95659 3.2434157,3.2579998 0 0 0 -2.77875,-1.58428 z"
           style="fill:#995c4a;fill-opacity:1;stroke:none;stroke-width:0.18562528;stroke-miterlimit:4;stroke-dasharray:none" />
        <g
           id="g4870"
           transform="translate(12.034948)">
          <g
             style="filter:url(#filter4838)"
             transform="rotate(60,107.05521,132.77786)"
             id="g4612">
            <path
               inkscape:connector-curvature="0"
               style="fill:url(#linearGradient4975);fill-opacity:1;stroke:none;stroke-width:0.99999994px;stroke-linecap:butt;stroke-linejoin:miter;stroke-opacity:1"
               d="m 682.63086,298.02734 c -50.76574,-0.83537 -120.48421,47.28722 -194.53711,150.60352 -25.16329,35.10703 -193.0867,96.55518 -286.83008,149.83984 -26.29525,14.94647 -59.46074,39.94153 -41.82812,73.32227 14.61023,27.65895 47.8811,15.46279 78.71289,-3.19727 93.07702,-56.33214 236.46212,-174.27613 274.95898,-175.86132 180.80065,-7.44484 270.74326,-90.14771 228.63867,-159.17969 -14.05002,-23.03552 -34.32266,-35.11937 -59.11523,-35.52735 z M 192.27734,635.00195 a 12.870486,13.260501 0 0 1 12.8711,13.25977 12.870486,13.260501 0 0 1 -12.8711,13.25976 12.870486,13.260501 0 0 1 -12.87109,-13.25976 12.870486,13.260501 0 0 1 12.87109,-13.25977 z"
               transform="matrix(0.13229167,-0.22913589,0.22913589,0.13229167,-67.478869,169.52403)"
               id="path4595" />
            <path
               style="fill:url(#linearGradient4608);fill-opacity:1;stroke:none;stroke-width:0.28028226;stroke-miterlimit:4;stroke-dasharray:none"
               d="m 124.03605,70.061636 c 0,13.381583 -7.66926,33.867264 -17.12977,33.867264 -9.460512,0 -17.129773,-20.48568 -17.129772,-33.867264 0,-13.381583 7.66926,-24.2295 17.129772,-24.2295 9.46051,2e-6 17.12977,10.847918 17.12977,24.2295 z"
               id="path4597"
               inkscape:connector-curvature="0"
               sodipodi:nodetypes="sssss" />
          </g>
          <g
             style="filter:url(#filter4634)"
             transform="rotate(-60,107.05521,132.77786)"
             id="g4618">
            <path
               inkscape:connector-curvature="0"
               style="fill:url(#linearGradient4977);fill-opacity:1;stroke:none;stroke-width:0.99999994px;stroke-linecap:butt;stroke-linejoin:miter;stroke-opacity:1"
               d="m 218.375,298.58008 c -26.02663,-0.17303 -47.11947,11.53988 -59.82812,34.83008 -39.38844,72.18418 38.20383,143.56557 226.48437,162.13086 42.98522,4.23853 180.16213,118.9406 273.17969,173.48242 26.09165,15.29912 64.32179,31.52316 84.41406,-0.4375 C 759.27324,642.10363 732.07598,619.38866 700.5,602.01758 605.17642,549.57658 431.34,484.37284 410.71875,451.82617 345.64918,349.12636 271.66762,298.93437 218.375,298.58008 Z m 489.11133,342.66211 a 11.700442,11.700442 0 0 1 11.70117,11.69922 11.700442,11.700442 0 0 1 -11.70117,11.70117 11.700442,11.700442 0 0 1 -11.69922,-11.70117 11.700442,11.700442 0 0 1 11.69922,-11.69922 z"
               transform="matrix(0.13229167,0.22913589,-0.22913589,0.13229167,162.49913,-36.746172)"
               id="path4614" />
            <path
               sodipodi:nodetypes="sssss"
               inkscape:connector-curvature="0"
               id="path4616"
               d="m 124.03605,70.061636 c 0,13.381583 -7.66926,33.867264 -17.12977,33.867264 -9.460512,0 -17.129773,-20.48568 -17.129772,-33.867264 0,-13.381583 7.66926,-24.2295 17.129772,-24.2295 9.46051,2e-6 17.12977,10.847918 17.12977,24.2295 z"
               style="fill:url(#linearGradient4622);fill-opacity:1;stroke:none;stroke-width:0.28028226;stroke-miterlimit:4;stroke-dasharray:none" />
          </g>
        </g>
      </g>
    </g>
    <flowRoot
       xml:space="preserve"
       id="flowRoot4856"
       style="font-style:normal;font-weight:normal;font-size:40px;line-height:1.25;font-family:sans-serif;letter-spacing:0px;word-spacing:0px;fill:#000000;fill-opacity:1;stroke:none"
       transform="scale(0.26458333)"><flowRegion
         id="flowRegion4858"><rect
           id="rect4860"
           width="932.91528"
           height="602.18274"
           x="-62.402359"
           y="116.28166" /></flowRegion><flowPara
         id="flowPara4862"></flowPara></flowRoot>  </g>
</svg>
