<?xml version="1.0" encoding="UTF-8" standalone="no"?>
<!-- Created with Inkscape (http://www.inkscape.org/) -->

<svg
   xmlns:dc="http://purl.org/dc/elements/1.1/"
   xmlns:cc="http://creativecommons.org/ns#"
   xmlns:rdf="http://www.w3.org/1999/02/22-rdf-syntax-ns#"
   xmlns:svg="http://www.w3.org/2000/svg"
   xmlns="http://www.w3.org/2000/svg"
   xmlns:xlink="http://www.w3.org/1999/xlink"
   xmlns:sodipodi="http://sodipodi.sourceforge.net/DTD/sodipodi-0.dtd"
   xmlns:inkscape="http://www.inkscape.org/namespaces/inkscape"
   width="113.49368mm"
   height="93.498962mm"
   viewBox="0 0 113.49368 93.498962"
   version="1.1"
   id="svg8"
   sodipodi:docname="MCB.svg"
   inkscape:version="0.92.4 (5da689c313, 2019-01-14)">
  <defs
     id="defs2">
    <linearGradient
       inkscape:collect="always"
       id="linearGradient4604">
      <stop
         style="stop-color:#753c2a;stop-opacity:1"
         offset="0"
         id="stop4600" />
      <stop
         style="stop-color:#b57562;stop-opacity:1"
         offset="1"
         id="stop4602" />
    </linearGradient>
    <inkscape:perspective
       sodipodi:type="inkscape:persp3d"
       inkscape:vp_x="0 : 148.5 : 1"
       inkscape:vp_y="0 : 999.99999 : 0"
       inkscape:vp_z="209.99999 : 148.5 : 1"
       inkscape:persp3d-origin="105 : 98.999999 : 1"
       id="perspective4558" />
    <linearGradient
       inkscape:collect="always"
       xlink:href="#linearGradient4604"
       id="linearGradient4606"
       x1="107.07726"
       y1="43.690151"
       x2="107.49003"
       y2="220.76659"
       gradientUnits="userSpaceOnUse"
       gradientTransform="matrix(1.8897638,3.2731669,-3.2731669,1.8897638,682.39957,-99.490777)" />
    <linearGradient
       inkscape:collect="always"
       xlink:href="#linearGradient4604"
       id="linearGradient4608"
       x1="106.38639"
       y1="111.95482"
       x2="107.07726"
       y2="43.690151"
       gradientUnits="userSpaceOnUse"
       gradientTransform="matrix(1,0,0,0.87286822,0,5.8267211)" />
    <linearGradient
       inkscape:collect="always"
       xlink:href="#linearGradient4604"
       id="linearGradient4620"
       gradientUnits="userSpaceOnUse"
       x1="107.07726"
       y1="43.690151"
       x2="107.49003"
       y2="220.76659"
       gradientTransform="matrix(1.8897638,-3.2731669,3.2731669,1.8897638,-186.80862,601.32836)" />
    <linearGradient
       inkscape:collect="always"
       xlink:href="#linearGradient4604"
       id="linearGradient4622"
       gradientUnits="userSpaceOnUse"
       gradientTransform="matrix(1,0,0,0.87286822,0,5.8267211)"
       x1="106.38639"
       y1="111.95482"
       x2="107.07726"
       y2="43.690151" />
    <filter
       style="color-interpolation-filters:sRGB"
       inkscape:label="Drop Shadow"
       id="filter4634">
      <feFlood
         flood-opacity="0.498039"
         flood-color="rgb(0,0,0)"
         result="flood"
         id="feFlood4624" />
      <feComposite
         in="flood"
         in2="SourceGraphic"
         operator="in"
         result="composite1"
         id="feComposite4626" />
      <feGaussianBlur
         in="composite1"
         stdDeviation="3"
         result="blur"
         id="feGaussianBlur4628" />
      <feOffset
         dx="6"
         dy="6"
         result="offset"
         id="feOffset4630" />
      <feComposite
         in="SourceGraphic"
         in2="offset"
         operator="over"
         result="composite2"
         id="feComposite4632" />
    </filter>
    <filter
       style="color-interpolation-filters:sRGB"
       inkscape:label="Drop Shadow"
       id="filter4838">
      <feFlood
         flood-opacity="0.498039"
         flood-color="rgb(0,0,0)"
         result="flood"
         id="feFlood4828" />
      <feComposite
         in="flood"
         in2="SourceGraphic"
         operator="in"
         result="composite1"
         id="feComposite4830" />
      <feGaussianBlur
         in="composite1"
         stdDeviation="3"
         result="blur"
         id="feGaussianBlur4832" />
      <feOffset
         dx="3.1"
         dy="-4.16667"
         result="offset"
         id="feOffset4834" />
      <feComposite
         in="SourceGraphic"
         in2="offset"
         operator="over"
         result="composite2"
         id="feComposite4836" />
    </filter>
    <linearGradient
       inkscape:collect="always"
       xlink:href="#linearGradient4604"
       id="linearGradient4975"
       gradientUnits="userSpaceOnUse"
       gradientTransform="matrix(1.8897638,3.2731669,-3.2731669,1.8897638,682.39957,-99.490777)"
       x1="107.07726"
       y1="43.690151"
       x2="107.49003"
       y2="220.76659" />
    <linearGradient
       inkscape:collect="always"
       xlink:href="#linearGradient4604"
       id="linearGradient4977"
       gradientUnits="userSpaceOnUse"
       gradientTransform="matrix(1.8897638,-3.2731669,3.2731669,1.8897638,-186.80862,601.32836)"
       x1="107.07726"
       y1="43.690151"
       x2="107.49003"
       y2="220.76659" />
  </defs>
  <sodipodi:namedview
     id="base"
     pagecolor="#ffffff"
     bordercolor="#666666"
     borderopacity="1.0"
     inkscape:pageopacity="0.0"
     inkscape:pageshadow="2"
     inkscape:zoom="1.8130258"
     inkscape:cx="273.36717"
     inkscape:cy="137.30672"
     inkscape:document-units="mm"
     inkscape:current-layer="layer1"
     showgrid="false"
     inkscape:window-width="1920"
     inkscape:window-height="1004"
     inkscape:window-x="-8"
     inkscape:window-y="-8"
     inkscape:window-maximized="1" />
  <metadata
     id="metadata5">
    <rdf:RDF>
      <cc:Work
         rdf:about="">
        <dc:format>image/svg+xml</dc:format>
        <dc:type
           rdf:resource="http://purl.org/dc/dcmitype/StillImage" />
      </cc:Work>
    </rdf:RDF>
  </metadata>
  <g
     inkscape:label="Layer 1"
     inkscape:groupmode="layer"
     id="layer1"
     transform="translate(-48.314097,-82.399274)">
    <g
       id="g4969"
       transform="matrix(0.48668856,0,0,0.48668856,47.09878,53.838459)">
      <path
         inkscape:connector-curvature="0"
         id="circle4937"
         d="m 50.789209,168.01093 a 3.5074082,3.4091604 0 0 0 -3.507342,3.4091 3.5074082,3.4091604 0 0 0 1.028757,2.40915 3.5074082,3.4091604 0 0 1 -0.502949,-1.75234 3.5074082,3.4091604 0 0 1 3.507341,-3.4091 3.5074082,3.4091604 0 0 1 2.479116,1.00098 3.5074082,3.4091604 0 0 0 -3.004923,-1.65779 z"
         style="fill:#995c4a;fill-opacity:1;stroke:none;stroke-width:0.1974591;stroke-miterlimit:4;stroke-dasharray:none" />
      <path
         style="fill:#995c4a;fill-opacity:1;stroke:none;stroke-width:0.18562528;stroke-miterlimit:4;stroke-dasharray:none"
         d="m 187.20888,169.662 a 3.2434157,3.2579998 0 0 0 -3.24335,3.25794 3.2434157,3.2579998 0 0 0 0.95132,2.30233 3.2434157,3.2579998 0 0 1 -0.4651,-1.67464 3.2434157,3.2579998 0 0 1 3.24335,-3.25794 3.2434157,3.2579998 0 0 1 2.29253,0.95659 3.2434157,3.2579998 0 0 0 -2.77875,-1.58428 z"
         id="path4942"
         inkscape:connector-curvature="0" />
      <g
         transform="translate(12.034948)"
         id="g4870">
        <g
           id="g4612"
           transform="rotate(60,107.05521,132.77786)"
           style="filter:url(#filter4838)">
          <path
             id="path4595"
             transform="matrix(0.13229167,-0.22913589,0.22913589,0.13229167,-67.478869,169.52403)"
             d="m 682.63086,298.02734 c -50.76574,-0.83537 -120.48421,47.28722 -194.53711,150.60352 -25.16329,35.10703 -193.0867,96.55518 -286.83008,149.83984 -26.29525,14.94647 -59.46074,39.94153 -41.82812,73.32227 14.61023,27.65895 47.8811,15.46279 78.71289,-3.19727 93.07702,-56.33214 236.46212,-174.27613 274.95898,-175.86132 180.80065,-7.44484 270.74326,-90.14771 228.63867,-159.17969 -14.05002,-23.03552 -34.32266,-35.11937 -59.11523,-35.52735 z M 192.27734,635.00195 a 12.870486,13.260501 0 0 1 12.8711,13.25977 12.870486,13.260501 0 0 1 -12.8711,13.25976 12.870486,13.260501 0 0 1 -12.87109,-13.25976 12.870486,13.260501 0 0 1 12.87109,-13.25977 z"
             style="fill:url(#linearGradient4975);fill-opacity:1;stroke:none;stroke-width:0.99999994px;stroke-linecap:butt;stroke-linejoin:miter;stroke-opacity:1"
             inkscape:connector-curvature="0" />
          <path
             sodipodi:nodetypes="sssss"
             inkscape:connector-curvature="0"
             id="path4597"
             d="m 124.03605,70.061636 c 0,13.381583 -7.66926,33.867264 -17.12977,33.867264 -9.460512,0 -17.129773,-20.48568 -17.129772,-33.867264 0,-13.381583 7.66926,-24.2295 17.129772,-24.2295 9.46051,2e-6 17.12977,10.847918 17.12977,24.2295 z"
             style="fill:url(#linearGradient4608);fill-opacity:1;stroke:none;stroke-width:0.28028226;stroke-miterlimit:4;stroke-dasharray:none" />
        </g>
        <g
           id="g4618"
           transform="rotate(-60,107.05521,132.77786)"
           style="filter:url(#filter4634)">
          <path
             id="path4614"
             transform="matrix(0.13229167,0.22913589,-0.22913589,0.13229167,162.49913,-36.746172)"
             d="m 218.375,298.58008 c -26.02663,-0.17303 -47.11947,11.53988 -59.82812,34.83008 -39.38844,72.18418 38.20383,143.56557 226.48437,162.13086 42.98522,4.23853 180.16213,118.9406 273.17969,173.48242 26.09165,15.29912 64.32179,31.52316 84.41406,-0.4375 C 759.27324,642.10363 732.07598,619.38866 700.5,602.01758 605.17642,549.57658 431.34,484.37284 410.71875,451.82617 345.64918,349.12636 271.66762,298.93437 218.375,298.58008 Z m 489.11133,342.66211 a 11.700442,11.700442 0 0 1 11.70117,11.69922 11.700442,11.700442 0 0 1 -11.70117,11.70117 11.700442,11.700442 0 0 1 -11.69922,-11.70117 11.700442,11.700442 0 0 1 11.69922,-11.69922 z"
             style="fill:url(#linearGradient4977);fill-opacity:1;stroke:none;stroke-width:0.99999994px;stroke-linecap:butt;stroke-linejoin:miter;stroke-opacity:1"
             inkscape:connector-curvature="0" />
          <path
             style="fill:url(#linearGradient4622);fill-opacity:1;stroke:none;stroke-width:0.28028226;stroke-miterlimit:4;stroke-dasharray:none"
             d="m 124.03605,70.061636 c 0,13.381583 -7.66926,33.867264 -17.12977,33.867264 -9.460512,0 -17.129773,-20.48568 -17.129772,-33.867264 0,-13.381583 7.66926,-24.2295 17.129772,-24.2295 9.46051,2e-6 17.12977,10.847918 17.12977,24.2295 z"
             id="path4616"
             inkscape:connector-curvature="0"
             sodipodi:nodetypes="sssss" />
        </g>
      </g>
      <g
         transform="translate(-2.6458334,2.1166667)"
         id="text4854"
         style="font-style:normal;font-weight:normal;font-size:10.58333302px;line-height:1.25;font-family:sans-serif;letter-spacing:0px;word-spacing:0px;fill:#333333;fill-opacity:1;stroke:none;stroke-width:0.26458332"
         aria-label="Magic Cuca Bakery">
        <path
           inkscape:connector-curvature="0"
           id="path4888"
           style="font-style:normal;font-variant:normal;font-weight:normal;font-stretch:normal;font-size:50.79999924px;font-family:Gabriola;-inkscape-font-specification:Gabriola;fill:#333333;stroke-width:0.26458332"
           d="m 20.051648,195.36897 q -0.73185,-0.64 -1.315364,-1.19968 -0.566977,-0.55383 -1.001657,-1.06091 -0.44587,-0.50173 -0.76479,-0.96789 -0.318919,-0.46617 -0.543464,-0.93618 -0.304739,-0.63788 -0.288432,-1.23671 0.0051,-0.59348 0.398426,-1.17998 0.398655,-0.57531 1.219075,-1.15969 0.82042,-0.58437 2.140941,-1.21524 l 0.984795,-0.47047 q 0.693833,-0.33147 1.600292,-0.76452 0.922996,-0.42721 1.94671,-0.90253 1.034905,-0.48067 2.103382,-0.97738 1.073823,-0.48552 2.069311,-0.93361 1.006678,-0.45344 1.879067,-0.84272 0.872388,-0.38929 1.487387,-0.6556 1.336061,-0.56957 2.666277,-1.12259 1.346754,-0.54719 2.658939,-1.02287 l -0.0092,-0.10557 q -0.594475,0.0503 -1.371856,0.0918 -0.76619,0.0362 -1.870462,0.0551 -2.6415,0.0524 -5.461057,0.13486 -2.814211,0.0937 -5.745178,0.20188 -2.914431,0.11405 -5.917889,0.24314 -2.992268,0.12375 -5.97919,0.25869 l -0.239587,-0.55904 q 0.648706,-0.59856 1.517875,-1.42615 0.88036,-0.83293 1.885314,-1.80785 1.016145,-0.98027 2.128658,-2.07531 1.129051,-1.08919 2.26979,-2.21145 1.15193,-1.12762 2.287323,-2.26107 1.140739,-1.12227 2.191453,-2.17403 1.056061,-1.04058 1.971488,-1.97273 0.931965,-0.92631 1.655155,-1.65667 0.847286,-0.84462 1.502334,-1.48744 0.660395,-0.63163 1.173814,-1.11058 l -0.071,-0.0623 q -0.335725,0.16039 -0.671451,0.32078 -0.319188,0.16623 -0.699677,0.348 l -1.846491,0.88214 q -1.779345,0.85007 -3.663758,1.6816 -1.873223,0.82618 -3.71772,1.59741 -1.833307,0.76588 -3.570744,1.44473 -1.737437,0.67884 -3.222831,1.22353 -1.228503,0.44946 -2.1047425,0.74437 -0.8597026,0.30075 -1.4780545,0.44497 -0.6130057,0.1554 -1.0177349,0.14258 -0.3935384,-0.0182 -0.6843662,-0.19536 -0.2854814,-0.166 -0.5066728,-0.51392 Q 5.81024,168.57979 5.5696564,168.0762 l -0.1603891,-0.33572 q -0.048117,-0.10072 -0.1064278,-0.25155 -0.069502,-0.14548 -0.1598909,-0.36345 l 0.03706,-0.21014 q 1.3367889,0.007 2.8609672,-0.22596 1.5407155,-0.22749 3.1846402,-0.64174 1.649271,-0.40306 3.356489,-0.94377 1.718408,-0.54605 3.388202,-1.16509 1.67514,-0.60785 3.273439,-1.26146 1.603645,-0.64242 3.023887,-1.26594 1.420242,-0.62352 2.611818,-1.17904 1.196923,-0.54433 2.081001,-0.96669 0.570733,-0.27266 0.902607,-0.52742 0.331874,-0.25477 0.448267,-0.55778 0.13293,-0.29717 0.04553,-0.68151 -0.07086,-0.3785 -0.327484,-0.91566 -0.176428,-0.3693 -0.462274,-0.82377 -0.274654,-0.45982 -0.642189,-0.99898 l 0.925986,-0.59357 q 1.448389,1.82338 2.30307,3.03697 0.865872,1.20825 1.240113,1.99161 0.192467,0.40287 0.253135,0.73126 0.07186,0.32304 -0.0056,0.62121 -0.06094,0.30401 -0.271704,0.61087 -0.199577,0.30153 -0.549981,0.66136 -1.372892,1.38436 -2.926332,2.93746 -1.553441,1.55309 -3.174525,3.16599 -1.615737,1.62409 -3.248012,3.24233 -1.615737,1.62409 -3.146298,3.13877 -0.609787,0.5937 -1.117859,1.08384 -0.491536,0.49598 -0.92612,0.90977 -0.418048,0.41964 -0.818562,0.78967 -0.383976,0.37587 -0.778646,0.72935 l 0.03742,0.0783 q 0.566748,-0.0508 1.11646,-0.0798 0.560903,-0.0343 1.15488,-0.0569 0.605168,-0.028 1.29352,-0.0544 0.693699,-0.0153 1.55961,-0.0441 2.164777,-0.072 4.490577,-0.1523 2.331145,-0.0691 4.767857,-0.14732 2.442057,-0.0671 4.950762,-0.13848 2.508704,-0.0714 5.033946,-0.13699 0.271934,-0.006 0.497609,0.0922 0.231022,0.10955 0.405592,0.27357 0.191106,0.16985 0.331605,0.37763 0.140498,0.20778 0.231385,0.39802 0.155043,0.32454 0.247291,0.7478 0.108784,0.4291 0.123194,0.86206 -1.915494,0.70893 -3.658278,1.37658 -1.737437,0.67885 -3.369308,1.3485 -1.631872,0.66964 -3.219478,1.34564 -1.576415,0.67064 -3.170365,1.3909 -1.593949,0.72025 -3.249696,1.48378 -1.650402,0.77471 -3.440938,1.63012 -1.186231,0.56671 -1.977428,1.0684 -0.791197,0.50169 -1.210739,1.00451 -0.403006,0.50867 -0.446045,1.05154 -0.04304,0.54287 0.2617,1.18075 0.112273,0.23501 0.225043,0.44229 0.118117,0.21847 0.263962,0.43744 0.157036,0.21362 0.369029,0.45597 0.21734,0.25353 0.516868,0.56402 z" />
        <path
           inkscape:connector-curvature="0"
           id="path4890"
           style="font-style:normal;font-variant:normal;font-weight:normal;font-stretch:normal;font-size:50.79999924px;font-family:Gabriola;-inkscape-font-specification:Gabriola;fill:#333333;stroke-width:0.26458332"
           d="m 36.995689,196.3686 q 0.773581,-0.60129 1.143633,-1.29734 0.370053,-0.69605 0.412689,-1.38894 0.04264,-0.69289 -0.184502,-1.34888 -0.227139,-0.65599 -0.630537,-1.17497 -0.540401,-0.69525 -1.060236,-1.06089 -0.519836,-0.36565 -1.010382,-0.47131 -0.482934,-0.0959 -0.94201,0.041 -0.441673,0.1391 -0.843152,0.45116 -0.470024,0.36534 -0.820448,0.90476 -0.333021,0.5416 -0.524677,1.22465 l -0.138159,0.0446 q -0.708024,-0.34504 -1.149478,-0.91298 -0.258784,-0.33294 -0.3892,-0.70281 -0.113014,-0.3677 -0.08462,-0.73536 0.03601,-0.35786 0.221032,-0.70588 0.192638,-0.33823 0.545156,-0.61224 0.577738,-0.44907 1.300046,-0.57067 0.72992,-0.11182 1.508713,0.0211 0.778794,0.13295 1.583627,0.48128 0.804833,0.34833 1.532397,0.81955 0.737357,0.46361 1.357207,1.01856 0.637254,0.55713 1.071097,1.11528 0.799185,1.02818 1.088239,1.96592 0.296665,0.94753 0.118007,1.80898 -0.161255,0.86363 -0.745622,1.64772 -0.576757,0.79388 -1.516805,1.52457 -0.646283,0.50234 -1.465532,1.04488 -0.811637,0.55233 -1.716835,1.14597 -0.895405,0.58602 -1.841952,1.22751 -0.938936,0.65127 -1.830023,1.3439 -1.410072,1.09602 -1.721502,2.17063 -0.294027,1.07679 0.368154,1.92871 0.586069,0.754 1.867294,1.25041 l -0.200336,0.61126 q -1.166031,-0.14612 -2.110048,-0.65331 -0.944017,-0.50719 -1.606199,-1.3591 -0.494733,-0.63649 -0.697926,-1.34251 -0.203192,-0.70602 -0.08658,-1.42499 0.126404,-0.72658 0.605239,-1.44436 0.478834,-0.71777 1.330753,-1.37995 0.254596,-0.19789 0.516804,-0.38599 0.269819,-0.17831 0.591848,-0.35008 l -0.04567,-0.0588 q -1.169411,0.2335 -2.425796,0.3147 -1.238982,0.0834 -2.402832,-0.0802 -1.146446,-0.16134 -2.124202,-0.61089 -0.979936,-0.43214 -1.619284,-1.25468 -0.525178,-0.67566 -0.724009,-1.41649 -0.198831,-0.74082 -0.09962,-1.46197 0.106819,-0.71136 0.489913,-1.37043 0.400498,-0.65688 1.066365,-1.17444 0.861711,-0.6698 1.810308,-0.90446 0.956208,-0.22487 1.948205,-0.10056 0.999608,0.1341 2.009989,0.60541 1.020173,0.4637 2.000022,1.17866 0.989641,0.70735 1.916124,1.63658 0.936275,0.92162 1.765904,1.98897 0.670186,-0.41097 1.278369,-0.82087 0.615794,-0.4001 1.311038,-0.9405 z m -11.400545,-0.78344 q -0.381895,0.29684 -0.673522,0.64918 -0.274225,0.35453 -0.40161,0.73629 -0.119774,0.39156 -0.06333,0.78752 0.07384,0.39814 0.378296,0.78982 0.342507,0.44065 0.913484,0.75084 0.570977,0.31019 1.283406,0.47901 0.720041,0.17861 1.539115,0.20171 0.836478,0.0253 1.692584,-0.10608 0.856105,-0.13135 1.679629,-0.42588 0.840926,-0.29235 1.589449,-0.7642 -0.582819,-0.7094 -1.21678,-1.36334 -0.624168,-0.66155 -1.283188,-1.18605 -0.651407,-0.51471 -1.332236,-0.86518 -0.680828,-0.35047 -1.374785,-0.45511 -0.676553,-0.10246 -1.370597,0.0757 -0.684253,0.17057 -1.359912,0.69575 z" />
        <path
           inkscape:connector-curvature="0"
           id="path4892"
           style="font-style:normal;font-variant:normal;font-weight:normal;font-stretch:normal;font-size:50.79999924px;font-family:Gabriola;-inkscape-font-specification:Gabriola;fill:#333333;stroke-width:0.26458332"
           d="m 52.209326,208.0777 q -0.157411,1.09316 -0.603877,1.93251 -0.446465,0.83935 -1.090905,1.52721 -0.669878,0.71501 -1.513435,1.21632 -0.826027,0.50074 -1.764663,0.77701 -0.921105,0.27571 -1.911279,0.31675 -0.972643,0.0405 -1.944234,-0.156 -0.963112,-0.20552 -1.864101,-0.65875 -0.900989,-0.45323 -1.670305,-1.17399 -0.199117,-0.18655 -0.381276,-0.3912 -0.173107,-0.19617 -0.355837,-0.41835 -0.376133,-0.23342 -0.757319,-0.35262 -0.381185,-0.11919 -0.741412,-0.13377 -0.360228,-0.0146 -0.655385,0.0828 -0.286679,0.0883 -0.473227,0.28743 -0.373097,0.39823 -0.328234,0.96711 0.05391,0.57735 0.383831,1.27733 0.329918,0.69998 0.865147,1.50733 0.552759,0.80678 1.151343,1.67349 0.543138,0.78078 1.059694,1.55364 0.516556,0.77287 0.927359,1.53163 0.410803,0.75876 0.671742,1.49609 0.25246,0.74637 0.292843,1.44701 0.0319,0.70969 -0.200862,1.37536 -0.241244,0.67472 -0.826328,1.29922 -0.737714,0.78742 -1.705697,1.24014 -0.967411,0.47025 -2.076869,0.62047 -1.109458,0.15023 -2.316279,0.005 -1.206821,-0.14493 -2.414304,-0.5794 -1.215962,-0.42541 -2.379995,-1.14208 -1.163462,-0.69914 -2.195251,-1.6658 -0.597351,-0.55964 -1.173264,-1.26915 -0.584392,-0.70046 -1.048928,-1.49257 -0.473016,-0.78306 -0.781495,-1.6329 -0.307907,-0.83231 -0.37039,-1.67262 -0.05343,-0.83183 0.192863,-1.62078 0.246296,-0.78895 0.899215,-1.48586 0.542687,-0.57925 1.233042,-0.93518 0.690355,-0.35593 1.439586,-0.52074 0.758281,-0.15632 1.556765,-0.15602 0.798483,3e-4 1.565905,0.12445 0.776473,0.13264 1.485682,0.35521 0.70978,0.2401 1.298562,0.53679 l 0.0605,-0.0283 q -0.199208,-0.45856 -0.346967,-0.95388 -0.147188,-0.4778 -0.172235,-0.97713 -0.016,-0.49084 0.117871,-0.96025 0.151397,-0.46998 0.532974,-0.87727 0.432453,-0.46159 0.9798,-0.62859 0.564877,-0.16758 1.153569,-0.14289 0.597171,0.0156 1.181382,0.17209 0.584212,0.15645 1.090394,0.34176 -0.442526,-0.92444 -0.596088,-1.86708 -0.144512,-0.93415 -0.01588,-1.83334 0.137686,-0.8907 0.532132,-1.7108 0.402925,-0.82916 1.055845,-1.52607 1.11081,-1.18565 2.513622,-1.75783 1.411291,-0.58124 2.876495,-0.58512 1.474256,0.005 2.896101,0.55493 1.421845,0.55032 2.562243,1.61873 0.434438,0.40702 0.737113,0.80955 0.302675,0.40254 0.517127,0.7904 0.222932,0.37881 0.366121,0.73389 0.160719,0.35452 0.285235,0.67511 0.18282,0.49419 0.381456,0.93521 0.216166,0.44045 0.650604,0.84747 0.362031,0.33918 0.807143,0.53526 0.445112,0.19608 0.902041,0.21628 0.465409,0.0112 0.907003,-0.16995 0.459124,-0.18167 0.840701,-0.58896 0.05936,-0.0634 0.101182,-0.12614 0.05088,-0.0543 0.109662,-0.13519 l 0.193975,0.0288 q 0.353161,0.87471 0.244822,1.58897 -0.09081,0.71369 -0.497823,1.14812 -0.32222,0.34393 -0.712366,0.48826 -0.381666,0.13528 -0.813157,0.0879 -0.42244,-0.0389 -0.859644,-0.26155 -0.437204,-0.22266 -0.85354,-0.61271 -0.633555,-0.59357 -1.129243,-1.53382 z m -17.809718,7.0735 q -0.803715,-0.43008 -1.688226,-0.64693 -0.875461,-0.20838 -1.751402,-0.16229 -0.884421,0.0551 -1.706539,0.4066 -0.813067,0.35992 -1.474466,1.06588 -0.814029,0.86888 -1.01898,1.84952 -0.20438,0.99817 0.01197,1.98263 0.225398,0.99294 0.790064,1.89586 0.564667,0.90291 1.29778,1.58975 0.995586,0.93274 2.188966,1.47296 1.184901,0.54927 2.372478,0.64219 1.188149,0.11044 2.27322,-0.24958 1.094123,-0.35153 1.908152,-1.22041 0.457892,-0.48874 0.589474,-1.02827 0.123103,-0.53048 0.01603,-1.12365 -0.106504,-0.57564 -0.416606,-1.20607 -0.310102,-0.63043 -0.736151,-1.3185 -0.574288,-0.92892 -1.273003,-1.90644 -0.689663,-0.96903 -1.382755,-2.04325 z m 6.994543,-3.72895 q 0.488742,0.45789 1.030556,0.65959 0.559345,0.20114 1.129935,0.20886 0.57059,0.008 1.135467,-0.15984 0.573357,-0.17663 1.090695,-0.45672 0.534868,-0.28067 0.996759,-0.6467 0.479421,-0.3666 0.852518,-0.76483 0.466371,-0.49779 0.850713,-1.08943 0.401873,-0.59221 0.67932,-1.23301 0.277448,-0.64081 0.39598,-1.31153 0.127583,-0.66224 0.06291,-1.30066 -0.0562,-0.64748 -0.339149,-1.25247 -0.28295,-0.60499 -0.835048,-1.12224 -0.515894,-0.48333 -1.084861,-0.71047 -0.559915,-0.21866 -1.139556,-0.23487 -0.579641,-0.0162 -1.153569,0.14289 -0.556398,0.15852 -1.091266,0.43919 -0.517338,0.28009 -0.98828,0.63764 -0.461891,0.36603 -0.826508,0.75522 -0.466371,0.49779 -0.867673,1.10753 -0.392822,0.60069 -0.661218,1.24997 -0.268397,0.64928 -0.395408,1.32905 -0.117961,0.68825 -0.05271,1.34421 0.0743,0.66443 0.366301,1.2779 0.292,0.61347 0.844098,1.13072 z" />
        <path
           inkscape:connector-curvature="0"
           id="path4894"
           style="font-style:normal;font-variant:normal;font-weight:normal;font-stretch:normal;font-size:50.79999924px;font-family:Gabriola;-inkscape-font-specification:Gabriola;fill:#333333;stroke-width:0.26458332"
           d="m 62.792092,206.55203 q -0.350272,-0.25639 -0.517926,-0.59428 -0.160327,-0.34791 -0.181989,-0.71727 -0.01434,-0.37937 0.10535,-0.75286 0.127012,-0.3835 0.361427,-0.70374 0.329647,-0.45035 0.72883,-0.68074 0.406508,-0.24039 0.81518,-0.29475 0.415998,-0.0644 0.786804,0.038 0.378131,0.0923 0.658349,0.29746 0.340264,0.24907 0.515243,0.57696 0.182304,0.31788 0.211291,0.67723 0.03899,0.36669 -0.07337,0.73017 -0.09503,0.36079 -0.336768,0.69105 -0.256392,0.35027 -0.632877,0.61264 -0.36916,0.25236 -0.794444,0.37141 -0.415276,0.12639 -0.85005,0.0694 -0.424767,-0.0496 -0.795054,-0.32068 z m -2.440439,5.16083 q -1.005237,1.01636 -1.96776,2.07935 -0.955197,1.05298 -1.819085,2.0652 -0.853881,1.01956 -1.597157,1.951 -0.725944,0.92876 -1.290006,1.69936 -0.761849,1.04081 -1.281236,1.81337 -0.512062,0.76255 -0.815607,1.32423 -0.303545,0.56167 -0.430557,0.94517 -0.109679,0.38081 -0.08409,0.66083 0.04292,0.27733 0.206445,0.47388 0.173535,0.20387 0.433738,0.39433 0.480373,0.35162 1.133357,0.61442 0.670317,0.26011 1.431223,0.41746 l -0.190777,0.65959 q -0.572719,0.0265 -1.342911,-0.0762 -0.760184,-0.0953 -1.543787,-0.28468 -0.783603,-0.18934 -1.473936,-0.4641 -0.687651,-0.25742 -1.107978,-0.56509 -0.280217,-0.20512 -0.473769,-0.42364 -0.200876,-0.20852 -0.259166,-0.52784 -0.04828,-0.312 0.05799,-0.77216 0.116283,-0.45282 0.455734,-1.12655 0.349458,-0.66639 0.958712,-1.60372 0.609254,-0.93733 1.546915,-2.21832 0.549411,-0.75058 1.248013,-1.68399 0.715936,-0.93609 1.537111,-1.99495 0.8285,-1.06887 1.757596,-2.23318 0.936421,-1.17431 1.954145,-2.3967 0.225128,-0.26557 0.479763,-0.34047 0.261959,-0.0849 0.518036,-0.0358 0.263403,0.0391 0.495542,0.16292 0.249473,0.12113 0.429613,0.25298 0.670521,0.49081 1.03389,1.23325 z" />
        <path
           inkscape:connector-curvature="0"
           id="path4896"
           style="font-style:normal;font-variant:normal;font-weight:normal;font-stretch:normal;font-size:50.79999924px;font-family:Gabriola;-inkscape-font-specification:Gabriola;fill:#333333;stroke-width:0.26458332"
           d="m 69.269531,222.81002 q 0.64279,-0.41559 0.997704,-1.02697 0.242835,-0.41832 0.304373,-0.87017 0.07849,-0.45636 -0.04922,-0.90336 -0.121486,-0.45772 -0.467856,-0.87389 -0.329417,-0.42068 -0.908624,-0.75692 -0.836632,-0.48567 -1.67599,-0.57139 -0.833132,-0.0964 -1.646857,0.11954 -0.802999,0.2222 -1.559958,0.68624 -0.746232,0.47026 -1.430517,1.10555 -0.673559,0.64152 -1.254038,1.39444 -0.574252,0.74218 -1.022564,1.51446 -0.803226,1.38366 -1.109281,2.7261 -0.289102,1.33794 -0.144709,2.4973 0.15062,1.14864 0.710511,2.06163 0.559891,0.91299 1.482331,1.44847 0.976071,0.56662 2.266241,0.64156 1.307124,0.0704 2.911031,-0.51858 0.04568,0.0695 0.104852,0.18994 0.07613,0.11589 0.11835,0.24079 0.04222,0.12489 0.06299,0.23733 0.02077,0.11244 -0.01659,0.1768 -0.02491,0.0429 -0.04186,0.0474 l -0.04636,0.0305 q -2.017996,1.08001 -3.96241,1.06983 -1.944414,-0.0102 -3.682034,-1.01888 -0.943893,-0.54794 -1.581956,-1.27685 -0.644291,-0.71819 -1.020112,-1.55301 -0.369595,-0.84554 -0.495626,-1.7648 -0.109079,-0.92375 -0.01195,-1.85687 0.114077,-0.93762 0.415678,-1.85243 0.318554,-0.9193 0.804225,-1.75594 0.653789,-1.12623 1.554276,-2.10925 0.906714,-0.99376 1.982636,-1.76021 1.092874,-0.77096 2.291646,-1.27968 1.215725,-0.51321 2.459855,-0.6801 1.261083,-0.17139 2.519439,0.0572 1.264583,0.21784 2.444448,0.90276 0.879536,0.51058 1.516555,1.16718 0.637018,0.65661 0.953664,1.37103 0.333599,0.70992 0.320874,1.44824 0.0042,0.73383 -0.388046,1.40957 -0.255289,0.43977 -0.593977,0.70205 -0.321736,0.25779 -0.711646,0.36128 -0.372957,0.099 -0.780183,0.0347 -0.390274,-0.0688 -0.776412,-0.29297 -0.235973,-0.13698 -0.468492,-0.32932 -0.215566,-0.19684 -0.4,-0.44731 z" />
        <path
           inkscape:connector-curvature="0"
           id="path4898"
           style="font-style:normal;font-variant:normal;font-weight:normal;font-stretch:normal;font-size:50.79999924px;font-family:Gabriola;-inkscape-font-specification:Gabriola;fill:#333333;stroke-width:0.26458332"
           d="m 97.337043,216.1183 q 1.559332,0.45624 2.797007,1.12851 1.24959,0.67575 2.09186,1.37447 0.84227,0.69872 1.25051,1.33505 0.40824,0.63634 0.29331,1.02915 -0.24031,0.82133 -0.68293,2.11328 -0.44262,1.29195 -1.08116,3.121 l -1.02514,-0.33871 q 0.0607,-0.16316 0.10245,-0.306 0.0572,-0.15126 0.10594,-0.31791 0.22841,-0.82481 0.26579,-1.61506 0.0528,-0.79866 -0.20104,-1.6095 -0.27761,-0.81779 -0.79095,-1.53657 -0.501444,-0.7153 -1.182579,-1.30226 -0.681134,-0.58696 -1.52164,-1.02672 -0.837023,-0.45166 -1.76548,-0.72332 -1.595042,-0.46669 -3.050681,-0.34985 -1.440252,0.10841 -2.721661,0.68974 -1.277925,0.56942 -2.391495,1.54875 -1.098185,0.97092 -2.00909,2.22923 -0.899001,1.2618 -1.60173,2.73609 -0.690826,1.47777 -1.154034,3.06091 -0.546794,1.86882 -0.721413,3.61393 -0.174619,1.74511 -0.01074,3.30497 0.163874,1.55985 0.649401,2.90369 0.485527,1.34383 1.259024,2.4101 0.788883,1.05785 1.836992,1.80387 1.060012,0.74951 2.357472,1.12913 0.90465,0.26469 1.912638,0.35286 1.023374,0.0797 2.133245,-0.0478 1.113353,-0.13945 2.301299,-0.48968 1.203333,-0.35864 2.4679,-0.97074 0.08129,0.0755 0.179431,0.18172 0.11004,0.10973 0.189308,0.2363 0.08275,0.11467 0.122825,0.2427 0.05198,0.13151 0.02063,0.23864 -0.0209,0.0714 -0.154433,0.17449 -1.542662,0.94425 -2.987234,1.46491 -1.444571,0.52066 -2.803529,0.70455 -1.358957,0.18389 -2.651169,0.0513 -1.283792,-0.11718 -2.497928,-0.47242 -1.606945,-0.47017 -2.938705,-1.35088 -1.32334,-0.86532 -2.329393,-2.06424 -1.006052,-1.19892 -1.673038,-2.67338 -0.663504,-1.48637 -0.945839,-3.17134 -0.282334,-1.68498 -0.170142,-3.52589 0.127578,-1.84933 0.691787,-3.77766 0.543311,-1.85691 1.459108,-3.61777 0.931182,-1.76927 2.170705,-3.26741 1.251426,-1.49466 2.805682,-2.65519 1.566159,-1.15705 3.386389,-1.81333 1.823712,-0.66817 3.885537,-0.73687 2.065307,-0.0806 4.326934,0.58113 z" />
        <path
           inkscape:connector-curvature="0"
           id="path4900"
           style="font-style:normal;font-variant:normal;font-weight:normal;font-stretch:normal;font-size:50.79999924px;font-family:Gabriola;-inkscape-font-specification:Gabriola;fill:#333333;stroke-width:0.26458332"
           d="m 105.65495,231.57959 q -0.0781,0.83974 -0.22935,1.79723 -0.13779,0.94629 -0.31608,1.92618 -0.16593,0.98104 -0.35657,1.95979 -0.17713,0.96754 -0.34508,1.83629 -0.15561,0.8699 -0.28623,1.6051 -0.11713,0.72401 -0.16305,1.21797 -0.13661,1.46954 0.35596,2.2004 0.49257,0.73086 1.41875,0.81697 1.04967,0.0976 2.25321,-0.92402 1.20468,-1.03395 2.40701,-3.1144 1.20233,-2.08045 2.15764,-4.71947 0.95646,-2.65136 1.44563,-5.76967 l 2.64786,-0.0777 0.19644,0.0307 q -0.2202,1.16283 -0.44183,2.475 -0.20813,1.30097 -0.40507,2.61544 -0.19578,1.30211 -0.34992,2.55828 -0.15415,1.25616 -0.25287,2.31818 -0.18713,2.01291 -0.0719,3.31903 0.11639,1.29376 0.41798,2.06915 0.30274,0.76304 0.74561,1.09069 0.45636,0.31645 0.93797,0.36122 0.28403,0.0264 0.5626,-0.0224 0.29091,-0.0477 0.54708,-0.12352 0.25731,-0.0882 0.46638,-0.19331 0.22141,-0.10397 0.37879,-0.18899 l 0.35471,0.60594 q -0.39256,0.33718 -0.88048,0.62813 -0.48676,0.2786 -1.01489,0.46617 -0.52927,0.19991 -1.09761,0.28409 -0.56833,0.0842 -1.13639,0.0314 -0.71625,-0.0666 -1.36905,-0.41375 -0.64044,-0.34602 -1.09711,-1.06109 -0.45667,-0.71507 -0.67443,-1.85633 -0.20541,-1.14012 -0.0516,-2.7949 0.0494,-0.53101 0.12457,-1.07208 0.0752,-0.54106 0.18086,-1.14157 0.10565,-0.60052 0.24403,-1.28518 0.15188,-0.69586 0.34109,-1.52527 l -0.13355,-0.0373 q -1.12789,3.02155 -2.31097,5.02906 -1.17074,2.00866 -2.32746,3.19653 -1.14437,1.18902 -2.2322,1.63595 -1.08899,0.45928 -2.02752,0.37203 -0.7039,-0.0654 -1.33544,-0.37326 -0.62034,-0.29433 -1.07614,-0.88476 -0.45465,-0.60278 -0.67958,-1.53296 -0.21257,-0.92904 -0.0897,-2.25039 0.0804,-0.86444 0.28477,-1.99137 0.20556,-1.13928 0.43609,-2.41326 0.24404,-1.28517 0.47026,-2.64674 0.22737,-1.37391 0.3525,-2.71997 0.0505,-0.54336 0.0502,-0.94197 -3.1e-4,-0.39862 -0.0997,-0.66943 -0.0994,-0.27081 -0.33488,-0.41726 -0.22315,-0.1453 -0.64302,-0.18433 -0.41987,-0.039 -1.11055,0.0213 -0.678333,0.0615 -1.438795,0.20256 l -0.10258,-0.90636 q 1.045918,-0.26399 1.934465,-0.44296 0.90204,-0.19017 1.59731,-0.29992 0.70762,-0.10859 1.18493,-0.15141 0.48965,-0.0417 0.71193,-0.021 0.44457,0.0413 0.71367,0.22827 0.26911,0.18694 0.4133,0.51174 0.14418,0.3248 0.16575,0.76276 0.0339,0.4391 -0.0178,0.99481 z" />
        <path
           inkscape:connector-curvature="0"
           id="path4902"
           style="font-style:normal;font-variant:normal;font-weight:normal;font-stretch:normal;font-size:50.79999924px;font-family:Gabriola;-inkscape-font-specification:Gabriola;fill:#333333;stroke-width:0.26458332"
           d="m 129.70282,234.7132 q 0.30377,-0.70258 0.25939,-1.40812 -0.0304,-0.48273 -0.23012,-0.89268 -0.18815,-0.42311 -0.5426,-0.72392 -0.35522,-0.31318 -0.87439,-0.46693 -0.50757,-0.16691 -1.17598,-0.12487 -0.96547,0.0607 -1.7111,0.45556 -0.74641,0.38247 -1.30319,1.01398 -0.54439,0.63072 -0.9162,1.437 -0.35942,0.8055 -0.57569,1.71383 -0.20388,0.90756 -0.2685,1.85606 -0.0654,0.93613 -0.009,1.82733 0.10042,1.59675 0.59141,2.88312 0.50259,1.27321 1.26651,2.15718 0.76315,0.87159 1.73578,1.31992 0.97264,0.44833 2.03714,0.38138 1.12639,-0.0708 2.24094,-0.725 1.12616,-0.66731 2.13289,-2.04787 0.0766,0.0325 0.19268,0.0997 0.12767,0.0541 0.23214,0.13452 0.10447,0.0804 0.18419,0.16239 0.0797,0.082 0.0844,0.15625 0.003,0.0495 -0.008,0.0627 l -0.0216,0.0511 q -1.07843,2.01884 -2.70111,3.09019 -1.62267,1.07135 -3.62789,1.19746 -1.08925,0.0685 -2.02468,-0.18334 -0.93464,-0.23946 -1.71079,-0.725 -0.77693,-0.49792 -1.39224,-1.19241 -0.60371,-0.70764 -1.04114,-1.53758 -0.42583,-0.8431 -0.68304,-1.77136 -0.24561,-0.94142 -0.30633,-1.9069 -0.0817,-1.29968 0.12121,-2.61726 0.20218,-1.32996 0.67129,-2.56487 0.48072,-1.24806 1.19513,-2.33685 0.72602,-1.10194 1.66798,-1.93165 0.95357,-0.84286 2.12698,-1.3516 1.17263,-0.52111 2.5342,-0.60675 1.01498,-0.0638 1.90938,0.12846 0.8944,0.19228 1.55448,0.61056 0.67167,0.40513 1.07111,1.0262 0.41104,0.60792 0.46008,1.38773 0.0319,0.50749 -0.10408,0.9137 -0.1244,0.39306 -0.39119,0.69566 -0.25519,0.28944 -0.62956,0.4621 -0.36277,0.15951 -0.80838,0.18754 -0.27231,0.0171 -0.57249,-0.0137 -0.28859,-0.044 -0.58106,-0.14986 z" />
        <path
           inkscape:connector-curvature="0"
           id="path4904"
           style="font-style:normal;font-variant:normal;font-weight:normal;font-stretch:normal;font-size:50.79999924px;font-family:Gabriola;-inkscape-font-specification:Gabriola;fill:#333333;stroke-width:0.26458332"
           d="m 143.3293,232.36975 q -0.19949,-0.95927 -0.66165,-1.59788 -0.46217,-0.63861 -1.06559,-0.98183 -0.60342,-0.34322 -1.29243,-0.42795 -0.68901,-0.0847 -1.33256,0.0491 -0.86212,0.17928 -1.41923,0.48516 -0.55711,0.30587 -0.86787,0.69986 -0.29862,0.39146 -0.37771,0.86394 -0.0695,0.45782 0.0341,0.95566 0.12121,0.58285 0.45137,1.1349 0.33977,0.53739 0.86878,1.01009 l -0.0208,0.14367 q -0.62142,0.48393 -1.32569,0.63039 -0.41284,0.0859 -0.80237,0.0402 -0.37991,-0.0603 -0.69755,-0.24764 -0.3055,-0.18982 -0.53658,-0.50913 -0.21894,-0.32183 -0.30985,-0.75896 -0.14899,-0.71641 0.0597,-1.41853 0.22082,-0.70464 0.68294,-1.34546 0.46211,-0.64081 1.1291,-1.21022 0.66698,-0.56941 1.41031,-1.01535 0.7408,-0.45808 1.51191,-0.77045 0.78072,-0.32704 1.47285,-0.47098 1.27496,-0.26514 2.24422,-0.11202 0.98139,0.15061 1.67631,0.69015 0.70454,0.52487 1.15144,1.39467 0.45905,0.86728 0.70147,2.03297 0.16666,0.80141 0.2933,1.77582 0.13878,0.97189 0.27347,2.04596 0.13217,1.06194 0.29163,2.19421 0.1716,1.12974 0.4014,2.23471 0.36362,1.74853 1.19152,2.5011 0.83751,0.7379 1.89391,0.51821 0.93498,-0.19444 1.94458,-1.12646 l 0.46072,0.4489 q -0.64436,0.98274 -1.51524,1.60722 -0.87088,0.62448 -1.92729,0.84417 -0.78926,0.16414 -1.51266,0.0359 -0.72339,-0.12825 -1.31768,-0.54938 -0.59681,-0.43326 -1.0306,-1.17912 -0.4338,-0.74585 -0.65349,-1.80225 -0.0657,-0.31571 -0.11917,-0.63394 -0.0414,-0.32076 -0.0539,-0.68552 l -0.0728,0.0152 q -0.30497,1.15285 -0.78498,2.31676 -0.47039,1.14924 -1.12942,2.12236 -0.64942,0.95845 -1.48338,1.63859 -0.81931,0.68976 -1.83928,0.90188 -0.83784,0.17424 -1.59057,0.0267 -0.75273,-0.14749 -1.35663,-0.55394 -0.59176,-0.40898 -1.01497,-1.04303 -0.4136,-0.64871 -0.58531,-1.4744 -0.22222,-1.06855 -0.0155,-2.02362 0.21889,-0.95759 0.76708,-1.79365 0.56033,-0.83859 1.4282,-1.53845 0.86535,-0.712 1.93857,-1.27722 1.0707,-0.57736 2.31284,-1.00035 1.23961,-0.43514 2.56315,-0.71039 -0.0741,-0.78266 -0.1745,-1.50917 -0.0883,-0.72903 -0.26757,-1.59115 z m -5.72072,9.89239 q 0.0985,0.47356 0.28653,0.89049 0.19766,0.40226 0.48441,0.68466 0.29889,0.27987 0.67928,0.40345 0.39001,0.1089 0.87572,0.008 0.54641,-0.11364 1.07622,-0.48984 0.52982,-0.3762 0.99494,-0.94163 0.47727,-0.56796 0.85847,-1.29329 0.39082,-0.74 0.64963,-1.56655 0.25882,-0.82655 0.35676,-1.69566 0.10757,-0.88377 0.0133,-1.76357 -0.8935,0.21115 -1.7597,0.49263 -0.86873,0.26934 -1.62974,0.63028 -0.74886,0.35842 -1.36319,0.81554 -0.61433,0.45711 -1.01369,1.0342 -0.38975,0.56243 -0.53519,1.26406 -0.14797,0.6895 0.0263,1.52733 z" />
        <path
           inkscape:connector-curvature="0"
           id="path4906"
           style="font-style:normal;font-variant:normal;font-weight:normal;font-stretch:normal;font-size:50.79999924px;font-family:Gabriola;-inkscape-font-specification:Gabriola;fill:#333333;stroke-width:0.26458332"
           d="m 166.15838,236.56838 q 0.94057,-0.18996 1.73848,-0.47653 0.79792,-0.28658 1.56945,-0.65679 1.38654,-0.66531 2.4332,-1.58022 1.0413,-0.9261 1.5759,-2.07678 0.54042,-1.16722 0.49633,-2.5492 -0.0383,-1.39852 -0.80553,-2.99751 -0.7136,-1.48716 -1.7645,-2.35853 -1.05626,-0.88254 -2.39973,-1.15956 -1.33229,-0.28239 -2.94061,0.0354 -1.61368,0.30659 -3.44748,1.18652 -0.35782,0.17169 -0.72727,0.37648 -0.36363,0.18824 -0.73307,0.39302 0.30492,0.69282 0.71134,1.62581 0.40105,0.92182 0.85531,1.98318 0.45425,1.06136 0.92952,2.19518 0.48644,1.12845 0.94025,2.21754 0.4538,1.08909 0.85932,2.07754 0.40551,0.98845 0.70909,1.76446 z m -10.24629,-23.50382 q 0.33757,0.73218 0.82492,1.80517 0.48199,1.06181 1.08156,2.39735 0.59421,1.32435 1.2899,2.88889 0.70688,1.55917 1.48306,3.29144 0.96208,-0.48916 1.84814,-1.07939 0.89188,-0.60679 1.61873,-1.29947 0.73804,-0.69804 1.26142,-1.49943 0.51801,-0.81256 0.74891,-1.70746 0.24207,-0.90026 0.13621,-1.89494 -0.10005,-1.01122 -0.62586,-2.10703 -0.61702,-1.2859 -1.45461,-1.97073 -0.83759,-0.68484 -1.82194,-0.87281 -0.97317,-0.19333 -2.05865,0.0386 -1.0743,0.22661 -2.18129,0.75778 -0.53672,0.25754 -1.08553,0.5759 -0.53762,0.313 -1.06497,0.67609 z m -1.82388,3.68144 q -0.22535,-0.46964 -0.46458,-0.76753 -0.23924,-0.29789 -0.54245,-0.41377 -0.29203,-0.12124 -0.68695,-0.0555 -0.39492,0.0657 -0.93165,0.32323 -0.73799,0.35412 -1.80922,1.07448 l -0.58934,-0.94152 q 0.92632,-0.67834 2.02619,-1.4537 1.09986,-0.77537 2.28292,-1.54939 1.19423,-0.77938 2.42066,-1.49167 1.23224,-0.72884 2.42868,-1.30294 0.97281,-0.46678 1.96036,-0.81684 0.98756,-0.35006 1.93886,-0.51765 0.94593,-0.17877 1.83817,-0.12543 0.88687,0.0422 1.67487,0.36562 0.78799,0.32346 1.45429,0.96667 0.66094,0.63204 1.14382,1.6384 0.69214,1.44244 0.70851,2.82396 0.0222,1.36498 -0.45877,2.62748 -0.48632,1.25131 -1.3644,2.37421 -0.88345,1.11172 -1.9972,2.05883 l 0.0483,0.10064 q 1.73627,-0.68181 3.3656,-0.92713 1.62933,-0.24532 3.05554,0.0608 1.42621,0.3061 2.57639,1.21236 1.16136,0.9009 1.93934,2.52224 0.65458,1.36417 0.80021,2.6424 0.15681,1.27287 -0.0951,2.43924 -0.25195,1.16637 -0.86793,2.20478 -0.60481,1.03304 -1.4681,1.92875 -0.86329,0.8957 -1.94035,1.63261 -1.07168,0.74809 -2.25694,1.31683 -0.98399,0.47215 -1.94337,0.79493 -0.94819,0.31742 -2.0462,0.63794 l -2.04585,1.29807 -0.212,0.0742 q -0.56287,-1.54573 -1.27196,-3.31019 -0.69791,-1.76982 -1.51566,-3.67472 -0.80657,-1.91027 -1.68378,-3.91045 -0.87722,-2.00017 -1.79872,-4.00661 -0.91568,-2.02299 -1.84881,-3.99633 -0.92731,-1.9899 -1.82333,-3.85724 z" />
        <path
           inkscape:connector-curvature="0"
           id="path4908"
           style="font-style:normal;font-variant:normal;font-weight:normal;font-stretch:normal;font-size:50.79999924px;font-family:Gabriola;-inkscape-font-specification:Gabriola;fill:#333333;stroke-width:0.26458332"
           d="m 182.95796,213.84827 q -0.56808,-0.79828 -1.24788,-1.19741 -0.6798,-0.39912 -1.37027,-0.47098 -0.69046,-0.0719 -1.35546,0.12736 -0.665,0.19923 -1.20056,0.58035 -0.71745,0.51055 -1.10472,1.01448 -0.38728,0.50393 -0.51357,0.98957 -0.11618,0.47846 0.001,0.94291 0.12032,0.44715 0.41514,0.86145 0.34517,0.48504 0.8693,0.85793 0.52706,0.3556 1.2014,0.57594 l 0.0387,0.13992 q -0.37463,0.69281 -0.96072,1.10989 -0.34356,0.24449 -0.71862,0.35916 -0.37214,0.0974 -0.73827,0.0535 -0.35602,-0.0511 -0.69592,-0.25065 -0.32979,-0.20676 -0.58867,-0.57053 -0.42426,-0.59619 -0.51525,-1.32299 -0.0809,-0.73399 0.0848,-1.50648 0.16572,-0.77248 0.54774,-1.56188 0.38201,-0.7894 0.88355,-1.49642 0.49434,-0.71711 1.07497,-1.31297 0.58355,-0.61315 1.15953,-1.02303 1.06101,-0.75505 2.01012,-1.00424 0.95922,-0.25638 1.81235,-0.0415 0.85605,0.19759 1.61476,0.81455 0.76881,0.60977 1.45914,1.57985 0.4746,0.66692 0.98205,1.50835 0.51756,0.83425 1.07243,1.76371 0.54768,0.91936 1.14861,1.89215 0.61104,0.96561 1.26541,1.88516 1.03549,1.4551 2.09599,1.81165 1.06341,0.33924 1.94253,-0.28637 0.77808,-0.5537 1.32817,-1.81281 l 0.60225,0.22598 q -0.19524,1.15881 -0.74185,2.08057 -0.5466,0.92175 -1.42573,1.54736 -0.65682,0.4674 -1.37079,0.6406 -0.71397,0.17319 -1.42738,0.0263 -0.72059,-0.15698 -1.4175,-0.6657 -0.6969,-0.50873 -1.32251,-1.38786 -0.18697,-0.26272 -0.36382,-0.53264 -0.16676,-0.27711 -0.32477,-0.60611 l -0.0606,0.0431 q 0.18391,1.17823 0.21196,2.43692 0.031,1.2414 -0.18156,2.3973 -0.20962,1.13861 -0.70007,2.09651 -0.47314,0.96081 -1.32196,1.56484 -0.69723,0.49617 -1.4458,0.66354 -0.74856,0.16736 -1.46488,0.0378 -0.70621,-0.13677 -1.3485,-0.54736 -0.63938,-0.42789 -1.12836,-1.11502 -0.6328,-0.88923 -0.82719,-1.84689 -0.18428,-0.96486 -0.0182,-1.95072 0.1762,-0.99305 0.68977,-1.98262 0.50637,-0.99968 1.26208,-1.94846 0.74852,-0.95888 1.71605,-1.84528 0.96034,-0.89652 2.06178,-1.68032 -0.38229,-0.68695 -0.76614,-1.3119 -0.37373,-0.63215 -0.88429,-1.3496 z m -1.26427,11.35728 q 0.28045,0.3941 0.62016,0.70035 0.34262,0.28895 0.71867,0.43235 0.38614,0.1362 0.78413,0.0965 0.40091,-0.057 0.80511,-0.3446 0.45472,-0.32359 0.78874,-0.88096 0.33403,-0.55736 0.53279,-1.26203 0.20887,-0.71185 0.26654,-1.52922 0.0606,-0.83466 -0.0345,-1.69555 -0.0951,-0.86089 -0.35456,-1.69612 -0.25657,-0.85252 -0.69639,-1.62031 -0.73338,0.55234 -1.41351,1.15811 -0.68732,0.59567 -1.23919,1.23195 -0.54177,0.62908 -0.92068,1.2945 -0.37891,0.66542 -0.51277,1.35434 -0.13094,0.67162 0.0178,1.37257 0.14151,0.69085 0.63768,1.38808 z" />
        <path
           inkscape:connector-curvature="0"
           id="path4910"
           style="font-style:normal;font-variant:normal;font-weight:normal;font-stretch:normal;font-size:50.79999924px;font-family:Gabriola;-inkscape-font-specification:Gabriola;fill:#333333;stroke-width:0.26458332"
           d="m 195.92855,209.00291 q 0.71192,-1.39795 1.14256,-2.71027 0.43065,-1.31233 0.553,-2.44276 0.13119,-1.13913 -0.0814,-2.04401 -0.21258,-0.90488 -0.7958,-1.49678 -0.24373,-0.24736 -0.54112,-0.35479 -0.29726,-0.12497 -0.59555,-0.10964 -0.29817,-0.002 -0.58853,0.12721 -0.28154,0.1207 -0.52006,0.35573 -0.55656,0.54841 -0.8178,1.48487 -0.25241,0.92776 -0.20015,2.16472 0.0611,1.22825 0.43596,2.72192 0.37485,1.49367 1.08166,3.16519 0.70681,1.67152 1.74582,3.48581 1.03901,1.8143 2.41972,3.67496 l -1.5582,1.98807 -0.15005,0.13044 q -0.97417,-1.09467 -2.14841,-2.41007 -1.17412,-1.33294 -2.49622,-2.81606 -1.31326,-1.49182 -2.73969,-3.0985 -1.42629,-1.6242 -2.91365,-3.29271 -1.47853,-1.67722 -2.98317,-3.38094 -1.50464,-1.70372 -2.97459,-3.35456 -1.46982,-1.66838 -2.87884,-3.25738 -1.40901,-1.589 -2.69629,-3.03679 -0.20008,-0.22072 -0.23322,-0.48407 -0.0418,-0.27218 0.0478,-0.53462 0.0898,-0.27997 0.27594,-0.55047 0.18616,-0.2705 0.43352,-0.51423 0.53006,-0.52229 1.39167,-0.81411 1.58131,2.01123 2.91081,3.67858 1.32951,1.66734 2.47661,3.09655 1.14722,1.41167 2.15543,2.64691 0.9995,1.22641 1.92962,2.34707 0.93025,1.10312 1.82569,2.1709 0.89556,1.05024 1.82594,2.13582 0.93038,1.08557 1.92156,2.25053 1.00002,1.15625 2.13906,2.48893 l 0.0617,-0.0434 q -0.71784,-1.36465 -1.29472,-2.81596 -0.57688,-1.45131 -0.96096,-2.88366 -0.39279,-1.44118 -0.55808,-2.81053 -0.174,-1.37817 -0.0774,-2.58772 0.0966,-1.20955 0.48115,-2.21527 0.37583,-1.01455 1.09141,-1.71964 0.45054,-0.44394 0.9784,-0.66807 0.51915,-0.23296 1.06286,-0.22894 0.54384,-0.0135 1.06833,0.21836 0.53333,0.22319 0.99468,0.6914 0.7225,0.73325 1.08345,1.73569 0.36094,1.00245 0.40463,2.21303 0.0437,1.21059 -0.21209,2.59436 -0.25564,1.36624 -0.77515,2.83577 1.66259,0.50339 2.89683,0.81945 1.23437,0.29852 2.13653,0.45427 0.90229,0.13821 1.51616,0.14274 0.61387,0.005 1.02675,-0.0889 0.42171,-0.10212 0.70363,-0.27544 0.27322,-0.18216 0.50291,-0.40848 0.45938,-0.45265 0.81482,-1.08147 0.35544,-0.62882 0.63267,-1.35469 l 0.6205,0.29399 q -0.0656,0.56957 -0.29033,1.31336 -0.22474,0.7438 -0.55484,1.50435 -0.32127,0.75185 -0.72959,1.41536 -0.39078,0.66364 -0.79715,1.06406 -0.47705,0.47006 -1.3023,0.58675 -0.8077,0.11682 -2.07793,-0.0767 -1.26139,-0.20225 -3.02063,-0.68005 -1.76796,-0.48662 -4.1568,-1.21463 z" />
        <path
           inkscape:connector-curvature="0"
           id="path4912"
           style="font-style:normal;font-variant:normal;font-weight:normal;font-stretch:normal;font-size:50.79999924px;font-family:Gabriola;-inkscape-font-specification:Gabriola;fill:#333333;stroke-width:0.26458332"
           d="m 214.75258,193.19921 q 0.0745,-0.0371 0.20101,-0.0816 0.12409,-0.0619 0.2531,-0.089 0.1191,-0.0346 0.24312,-0.0345 0.11411,-0.007 0.18351,0.0448 0.0396,0.0298 0.057,0.0894 0.35598,1.13643 0.4466,2.21306 0.0882,1.05925 -0.0468,2.04385 -0.13746,0.96724 -0.49556,1.81518 -0.34818,0.85539 -0.86982,1.54936 -0.89424,1.18967 -2.12522,1.81591 -1.23099,0.62624 -2.61022,0.70662 -1.37922,0.0804 -2.81494,-0.36268 -1.43818,-0.46042 -2.7369,-1.43663 -1.06079,-0.79737 -1.95018,-1.82276 -0.88194,-1.0353 -1.5157,-2.19435 -0.62631,-1.16897 -0.97224,-2.42198 -0.35584,-1.26046 -0.35697,-2.51806 -0.004,-1.27497 0.37226,-2.49744 0.38331,-1.23238 1.21794,-2.34274 0.55144,-0.73363 1.24901,-1.24882 0.69756,-0.51519 1.44689,-0.72771 0.74687,-0.22988 1.51569,-0.11744 0.76883,0.11244 1.4628,0.63408 1.01122,0.76011 1.26539,1.9907 0.26163,1.22067 -0.0848,2.77555 -0.34645,1.55488 -1.20416,3.37711 -0.86017,1.80486 -2.07272,3.74826 l 0.16853,0.12668 q 1.26898,0.95386 2.55832,1.42653 1.29679,0.46275 2.47502,0.46401 1.1683,-0.006 2.15849,-0.45658 0.99019,-0.45038 1.65342,-1.33272 0.67068,-0.89225 0.93496,-2.15205 0.26182,-1.27716 -0.007,-2.98401 z m -9.36185,-4.12015 q -0.45604,-0.3428 -0.97183,-0.48226 -0.50833,-0.14937 -1.00449,-0.0879 -0.49862,0.0441 -0.95034,0.29416 -0.45171,0.25005 -0.7796,0.68626 -0.48438,0.6444 -0.65132,1.34124 -0.16693,0.69683 -0.0834,1.4113 0.0737,0.70701 0.36063,1.41921 0.27706,0.70475 0.69058,1.37244 0.42098,0.65777 0.93131,1.25859 0.51034,0.60082 1.05054,1.09998 0.95905,-1.4823 1.55574,-2.77151 0.59423,-1.30657 0.79131,-2.35312 0.19462,-1.06391 -0.0253,-1.86534 -0.22982,-0.80888 -0.91388,-1.32306 z" />
        <path
           inkscape:connector-curvature="0"
           id="path4914"
           style="font-style:normal;font-variant:normal;font-weight:normal;font-stretch:normal;font-size:50.79999924px;font-family:Gabriola;-inkscape-font-specification:Gabriola;fill:#333333;stroke-width:0.26458332"
           d="m 220.72239,191.42367 -0.10873,0.16645 q -0.97572,-0.66784 -2.14093,-1.42897 -1.16521,-0.76113 -2.3689,-1.52984 -1.21448,-0.77483 -2.40884,-1.50972 -1.19903,-0.7518 -2.23772,-1.38408 -1.04335,-0.64919 -1.87856,-1.13746 -0.82908,-0.49906 -1.31446,-0.77454 -0.3991,-0.2265 -0.70869,-0.35942 -0.30959,-0.13293 -0.57109,-0.12447 -0.25536,-0.002 -0.46409,0.16443 -0.21951,0.16063 -0.42764,0.52736 -0.10407,0.18337 -0.19269,0.38976 -0.0886,0.2064 -0.18015,0.46818 -0.0915,0.26179 -0.18743,0.60665 -0.10057,0.32796 -0.22387,0.77136 l -0.86844,-0.27896 q 0.36902,-2.15782 0.74068,-3.41573 0.36087,-1.26402 0.58125,-1.65233 0.40403,-0.71189 0.9961,-0.77516 0.58741,-0.0802 1.40717,0.38506 0.0755,0.0429 0.42999,0.27256 0.35449,0.22971 0.92325,0.60955 0.56409,0.36293 1.31009,0.85762 0.74601,0.49469 1.59841,1.07829 0.84775,0.56669 1.76954,1.20393 0.911,0.63112 1.81589,1.27302 l 0.072,-0.10174 q -1.82027,-1.71759 -3.27585,-3.39932 -1.46024,-1.69864 -2.3494,-3.27282 -0.88304,-1.58496 -1.09792,-2.99036 -0.21954,-1.42231 0.4416,-2.58723 0.23262,-0.40988 0.56407,-0.69236 0.33145,-0.28249 0.71567,-0.40668 0.37343,-0.13032 0.78272,-0.0977 0.39851,0.0265 0.77603,0.24078 0.48538,0.27547 0.81597,0.74831 0.32592,0.45592 0.41397,1.10484 l -0.049,0.0863 q -0.63463,0.23877 -1.02904,0.55682 -0.39909,0.30114 -0.65619,0.75417 -0.27548,0.48538 -0.34922,1.04247 -0.0737,0.55709 0.0572,1.1305 0.21195,0.93315 0.83961,1.98814 0.61687,1.04886 1.48765,2.12775 0.87691,1.0681 1.91532,2.12804 1.03374,1.04303 2.06252,1.96916 1.02412,0.90922 1.96778,1.65869 0.93899,0.73257 1.60337,1.19519 z" />
        <path
           inkscape:connector-curvature="0"
           id="path4916"
           style="font-style:normal;font-variant:normal;font-weight:normal;font-stretch:normal;font-size:50.79999924px;font-family:Gabriola;-inkscape-font-specification:Gabriola;fill:#333333;stroke-width:0.26458332"
           d="m 211.78876,170.62223 q 0.49981,-0.0119 1.22518,0.0138 0.71853,0.01 1.57282,0.0474 0.85895,0.0263 1.79839,0.0851 0.93943,0.0588 1.85806,0.13597 0.77357,0.072 1.79348,0.16336 1.00842,0.0867 2.10883,0.2106 1.09355,0.10776 2.17781,0.23851 1.07275,0.1261 1.97499,0.27689 -1.27375,-1.18397 -2.62553,-2.43962 -1.35864,-1.27181 -2.72412,-2.55976 -1.36548,-1.28795 -2.69647,-2.56195 -1.34248,-1.27865 -2.58394,-2.47632 -0.21111,-0.20577 -0.30234,-0.44333 -0.0866,-0.24906 -0.0902,-0.50471 -0.0151,-0.2603 0.0434,-0.50421 0.0516,-0.26005 0.14464,-0.49001 0.15343,-0.37943 0.41254,-0.68937 0.24761,-0.31459 0.53877,-0.57144 0.63012,0.85681 1.4371,1.83866 0.80014,0.96569 1.7358,2.02633 0.92417,1.05598 1.94717,2.1653 1.02764,1.09783 2.11278,2.21891 1.07363,1.11642 2.17491,2.23065 1.09444,1.09808 2.16833,2.14771 1.08073,1.06579 2.15022,2.06014 1.08099,0.99899 2.07929,1.9378 1.00981,0.94345 1.92078,1.83356 0.92711,0.88327 1.69546,1.72908 0.70866,0.79493 1.26759,1.5962 0.57043,0.80592 0.88056,1.62698 0.32163,0.82571 0.35066,1.68026 0.0337,0.84305 -0.31968,1.71689 -0.21853,0.5404 -0.54468,0.91688 -0.31465,0.38112 -0.67699,0.58243 -0.36234,0.20131 -0.74937,0.23209 -0.37554,0.0354 -0.72047,-0.10405 -0.37943,-0.15343 -0.70037,-0.55076 -0.31408,-0.38119 -0.37226,-0.83281 0.49422,-0.36203 0.82062,-0.80529 0.3264,-0.44327 0.48448,-0.8342 0.38125,-0.94282 0.16826,-1.87176 -0.21299,-0.92894 -0.97594,-1.98662 -0.76294,-1.05768 -2.04329,-2.32458 -1.2642,-1.27375 -3.013,-2.904 l -0.5164,-0.47638 -0.23882,0.42517 q -2.53669,-0.34349 -4.95181,-0.55756 -2.42662,-0.21871 -4.86033,-0.38678 -1.95251,-0.13402 -3.82697,-0.19635 -1.86982,-0.0738 -3.59017,-0.0872 -0.22801,0.001 -0.35693,-0.0105 -0.12428,-0.0235 -0.21626,-0.0607 -0.33344,-0.13483 -0.46796,-0.49692 -0.12987,-0.37358 0.13515,-1.02896 0.12088,-0.29895 0.33865,-0.63898 0.22242,-0.35154 0.64765,-0.74146 z" />
      </g>
    </g>
    <flowRoot
       xml:space="preserve"
       id="flowRoot4856"
       style="font-style:normal;font-weight:normal;font-size:40px;line-height:1.25;font-family:sans-serif;letter-spacing:0px;word-spacing:0px;fill:#000000;fill-opacity:1;stroke:none"
       transform="scale(0.26458333)"><flowRegion
         id="flowRegion4858"><rect
           id="rect4860"
           width="932.91528"
           height="602.18274"
           x="-62.402359"
           y="116.28166" /></flowRegion><flowPara
         id="flowPara4862"></flowPara></flowRoot>  </g>
</svg>
